<?xml version="1.0" standalone="no"?>
<!DOCTYPE svg PUBLIC "-//W3C//DTD SVG 20010904//EN"
 "http://www.w3.org/TR/2001/REC-SVG-20010904/DTD/svg10.dtd">
<svg version="1.0" xmlns="http://www.w3.org/2000/svg"
 width="1024.000000pt" height="1024.000000pt" viewBox="0 0 1024.000000 1024.000000"
 preserveAspectRatio="xMidYMid meet">

<g transform="translate(0.000000,1024.000000) scale(0.100000,-0.100000)"
fill="#ffffff" stroke="none">
<path d="M3647 9069 c-79 -12 -133 -46 -252 -161 -356 -342 -601 -853 -665
-1388 -24 -208 -31 -242 -54 -288 -267 -530 -326 -1115 -160 -1593 167 -483
561 -877 1092 -1094 199 -81 477 -147 747 -177 158 -17 754 -17 1030 1 295 19
320 19 346 -5 37 -33 34 -47 -227 -1096 -46 -186 -84 -351 -84 -368 0 -44 41
-80 91 -80 55 0 65 6 127 80 31 36 143 165 247 285 105 120 354 408 555 640
201 232 525 605 720 829 195 225 360 418 367 430 20 34 15 72 -13 105 l-26 31
-322 0 c-204 0 -334 4 -354 11 -20 7 -34 21 -41 41 -10 28 -4 45 78 207 113
223 185 394 271 638 88 247 104 315 98 398 -8 97 -25 117 -188 227 -80 54
-169 120 -200 146 -62 55 -124 152 -144 227 -8 28 -26 93 -41 145 -28 104 -91
241 -154 336 -83 125 -227 261 -358 338 -34 20 -65 41 -69 48 -4 6 -9 207 -11
447 -2 240 -5 464 -7 498 -6 98 -58 153 -146 153 -51 0 -101 -25 -166 -83
-132 -118 -766 -657 -783 -667 -11 -6 -145 -23 -298 -40 -219 -23 -282 -26
-295 -17 -10 7 -123 169 -253 361 -129 192 -245 360 -257 373 -47 50 -123 74
-201 62z m2036 -1785 c61 -21 141 -93 175 -158 22 -43 27 -64 27 -131 -1 -104
-27 -167 -101 -234 -154 -141 -389 -96 -486 92 -26 52 -36 176 -18 233 28 90
102 169 187 200 52 18 160 17 216 -2z"/>
<path d="M2217 3728 l2 -103 140 -3 141 -3 0 -424 0 -425 110 0 110 0 0 425 0
425 150 0 150 0 0 105 0 105 -402 0 -403 0 2 -102z"/>
<path d="M3090 3300 l0 -530 100 0 100 0 0 233 c0 127 5 248 10 268 16 57 50
82 122 87 73 5 114 -12 144 -61 17 -29 19 -56 22 -279 l3 -248 100 0 99 0 0
275 c0 250 -2 279 -20 328 -40 106 -124 156 -262 157 -79 0 -92 -3 -152 -34
l-66 -35 0 185 0 184 -100 0 -100 0 0 -530z"/>
<path d="M4135 3516 c-180 -56 -280 -261 -234 -478 32 -151 136 -250 294 -279
160 -30 324 36 393 159 27 48 24 50 -72 82 l-70 23 -35 -41 c-61 -70 -145 -90
-227 -53 -42 19 -76 58 -88 99 -3 12 -9 31 -12 42 -5 20 -1 20 267 20 l272 0
-6 88 c-3 48 -13 108 -23 132 -40 103 -117 178 -212 206 -56 17 -193 17 -247
0z m210 -159 c37 -21 84 -85 85 -114 0 -10 -40 -13 -168 -13 -93 0 -171 3
-175 6 -9 9 27 75 55 101 51 48 138 57 203 20z"/>
<path d="M6590 2587 c-60 -30 -88 -123 -56 -186 40 -77 155 -91 216 -26 18 19
25 40 28 85 4 59 4 61 -36 100 -34 35 -46 40 -83 40 -24 0 -55 -6 -69 -13z"/>
<path d="M1480 1955 c0 -327 1 -597 3 -600 1 -3 161 -7 355 -8 l352 -2 0 113
0 112 -235 0 -235 0 0 145 0 145 215 0 215 0 0 100 0 100 -215 0 -215 0 0 135
0 135 235 0 235 0 0 110 0 110 -355 0 -355 0 0 -595z"/>
<path d="M3370 2334 l0 -136 -80 4 -80 3 0 -92 0 -93 80 0 80 0 0 -238 c0
-284 7 -318 74 -380 60 -55 133 -76 237 -69 116 8 119 10 119 117 l0 90 -44
-6 c-58 -8 -112 2 -137 27 -18 18 -19 34 -19 239 l0 220 95 0 95 0 0 93 0 92
-95 -3 -95 -3 0 135 0 136 -115 0 -115 0 0 -136z"/>
<path d="M4206 2209 c-214 -33 -351 -226 -332 -469 14 -193 99 -320 253 -381
49 -20 77 -23 183 -24 117 0 129 2 188 29 98 45 218 188 179 213 -18 12 -150
53 -169 53 -9 0 -29 -18 -45 -39 -36 -51 -72 -71 -137 -78 -67 -7 -117 9 -167
54 -35 32 -48 57 -63 126 l-6 27 306 0 307 0 -6 93 c-7 113 -25 175 -72 243
-84 121 -244 180 -419 153z m161 -180 c51 -19 113 -92 113 -134 0 -13 -25 -15
-190 -15 -165 0 -190 2 -190 15 0 40 61 114 110 134 34 13 122 13 157 0z"/>
<path d="M5177 2206 c-27 -7 -69 -27 -93 -45 -25 -17 -47 -31 -49 -31 -3 0 -5
18 -5 40 l0 40 -100 0 -100 0 0 -432 0 -433 112 2 112 2 2 290 c1 250 4 295
18 316 26 39 61 56 123 62 76 6 137 -24 167 -82 19 -37 21 -60 24 -313 l2
-273 111 -2 110 -2 -3 330 c-3 310 -4 333 -24 375 -47 102 -143 160 -277 166
-51 2 -101 -1 -130 -10z"/>
<path d="M5945 2211 c-16 -4 -48 -17 -71 -29 -169 -86 -177 -349 -14 -432 19
-10 80 -30 135 -45 168 -45 217 -84 184 -143 -20 -36 -54 -52 -112 -52 -74 0
-114 21 -138 75 l-20 45 -99 0 c-115 0 -114 1 -85 -97 38 -128 133 -191 303
-200 176 -9 278 27 336 120 24 40 30 62 34 128 10 166 -52 232 -279 294 -129
36 -148 44 -166 72 -35 53 38 112 121 98 52 -8 81 -27 101 -65 l16 -30 96 0
96 0 -7 41 c-14 86 -75 165 -156 202 -49 22 -218 33 -275 18z"/>
<path d="M8236 2203 c-28 -8 -69 -28 -92 -44 l-43 -29 -3 37 -3 38 -102 3
-103 3 0 -433 0 -433 112 2 113 2 5 293 c6 326 6 330 73 362 62 29 156 16 205
-27 44 -40 52 -100 52 -376 l0 -256 112 2 113 2 0 318 0 318 -33 68 c-25 50
-46 77 -80 102 -85 61 -219 81 -326 48z"/>
<path d="M2344 2193 c3 -6 66 -100 141 -208 82 -118 133 -201 128 -208 -4 -7
-66 -102 -138 -212 -72 -110 -132 -204 -133 -208 -1 -5 50 -8 114 -8 l117 0
84 128 c46 70 87 129 91 130 4 2 45 -56 92 -128 l85 -131 123 -1 c91 -2 121 1
118 10 -3 6 -64 100 -136 208 -72 108 -133 202 -136 210 -3 7 54 102 126 210
72 108 133 202 136 208 3 9 -26 11 -118 7 l-122 -5 -76 -122 c-41 -67 -77
-122 -80 -122 -3 0 -42 55 -87 124 l-82 124 -126 3 c-92 2 -124 0 -121 -9z"/>
<path d="M6535 2197 c-3 -6 -4 -200 -3 -430 l3 -418 113 -2 112 -2 0 433 0
432 -110 0 c-79 0 -112 -4 -115 -13z"/>
<path d="M7193 2195 c-197 -61 -312 -261 -283 -491 31 -241 212 -387 460 -371
100 6 177 37 243 97 101 92 143 208 135 369 -11 198 -110 338 -277 391 -74 23
-212 26 -278 5z m210 -179 c44 -18 94 -77 108 -128 7 -24 12 -79 13 -124 0
-70 -4 -89 -29 -140 -38 -75 -88 -106 -173 -107 -68 0 -108 18 -150 69 -38 46
-52 101 -52 201 0 154 73 242 203 243 26 0 62 -6 80 -14z"/>
</g>
</svg>
